<mxfile host="app.diagrams.net" modified="2023-11-24T05:29:46.623Z" agent="Mozilla/5.0 (Macintosh; Intel Mac OS X 10_15_7) AppleWebKit/537.36 (KHTML, like Gecko) Chrome/119.0.0.0 Safari/537.36" etag="fY5xk2lEbAy9zNUn6POl" version="22.1.3" type="device">
  <diagram name="第 1 页" id="ydn4l21ypAKILk0yMW28">
    <mxGraphModel dx="951" dy="559" grid="1" gridSize="10" guides="1" tooltips="1" connect="1" arrows="1" fold="1" page="1" pageScale="1" pageWidth="827" pageHeight="1169" math="0" shadow="0">
      <root>
        <mxCell id="0" />
        <mxCell id="1" parent="0" />
        <mxCell id="7-xXJrKYtLPseB3tMn3a-1" value="Dapp contract" style="rounded=1;whiteSpace=wrap;html=1;" parent="1" vertex="1">
          <mxGeometry x="50" y="50" width="120" height="60" as="geometry" />
        </mxCell>
        <mxCell id="7-xXJrKYtLPseB3tMn3a-3" value="PADO contract" style="rounded=1;whiteSpace=wrap;html=1;" parent="1" vertex="1">
          <mxGeometry x="370" y="50" width="120" height="60" as="geometry" />
        </mxCell>
        <mxCell id="7-xXJrKYtLPseB3tMn3a-4" value="Verax/EAS Contract" style="rounded=1;whiteSpace=wrap;html=1;" parent="1" vertex="1">
          <mxGeometry x="690" y="50" width="120" height="60" as="geometry" />
        </mxCell>
        <mxCell id="7-xXJrKYtLPseB3tMn3a-5" value="" style="endArrow=none;dashed=1;html=1;rounded=0;entryX=0.5;entryY=1;entryDx=0;entryDy=0;" parent="1" target="7-xXJrKYtLPseB3tMn3a-1" edge="1">
          <mxGeometry width="50" height="50" relative="1" as="geometry">
            <mxPoint x="110" y="370" as="sourcePoint" />
            <mxPoint x="170" y="160" as="targetPoint" />
          </mxGeometry>
        </mxCell>
        <mxCell id="7-xXJrKYtLPseB3tMn3a-6" value="" style="endArrow=none;dashed=1;html=1;rounded=0;entryX=0.5;entryY=1;entryDx=0;entryDy=0;" parent="1" target="7-xXJrKYtLPseB3tMn3a-3" edge="1">
          <mxGeometry width="50" height="50" relative="1" as="geometry">
            <mxPoint x="430" y="370" as="sourcePoint" />
            <mxPoint x="429.5" y="120" as="targetPoint" />
          </mxGeometry>
        </mxCell>
        <mxCell id="7-xXJrKYtLPseB3tMn3a-8" value="" style="endArrow=none;dashed=1;html=1;rounded=0;entryX=0.5;entryY=1;entryDx=0;entryDy=0;" parent="1" edge="1">
          <mxGeometry width="50" height="50" relative="1" as="geometry">
            <mxPoint x="750" y="370" as="sourcePoint" />
            <mxPoint x="749.5" y="110" as="targetPoint" />
          </mxGeometry>
        </mxCell>
        <mxCell id="7-xXJrKYtLPseB3tMn3a-9" value="" style="endArrow=classic;html=1;rounded=0;" parent="1" edge="1">
          <mxGeometry width="50" height="50" relative="1" as="geometry">
            <mxPoint x="110" y="140" as="sourcePoint" />
            <mxPoint x="430" y="140" as="targetPoint" />
          </mxGeometry>
        </mxCell>
        <mxCell id="7-xXJrKYtLPseB3tMn3a-11" value="1.&amp;nbsp;Get attestations uids through&lt;br style=&quot;border-color: var(--border-color);&quot;&gt;user address and scheme id" style="edgeLabel;html=1;align=center;verticalAlign=middle;resizable=0;points=[];" parent="7-xXJrKYtLPseB3tMn3a-9" vertex="1" connectable="0">
          <mxGeometry x="-0.8326" y="2" relative="1" as="geometry">
            <mxPoint x="114" as="offset" />
          </mxGeometry>
        </mxCell>
        <mxCell id="7-xXJrKYtLPseB3tMn3a-12" value="" style="endArrow=classic;html=1;rounded=0;" parent="1" edge="1">
          <mxGeometry width="50" height="50" relative="1" as="geometry">
            <mxPoint x="110" y="210" as="sourcePoint" />
            <mxPoint x="750" y="210" as="targetPoint" />
          </mxGeometry>
        </mxCell>
        <mxCell id="7-xXJrKYtLPseB3tMn3a-13" value="2. Get attestations &lt;br&gt;through uids" style="edgeLabel;html=1;align=center;verticalAlign=middle;resizable=0;points=[];" parent="7-xXJrKYtLPseB3tMn3a-12" vertex="1" connectable="0">
          <mxGeometry x="-0.7524" y="1" relative="1" as="geometry">
            <mxPoint x="74" as="offset" />
          </mxGeometry>
        </mxCell>
        <mxCell id="SAyCHPUwFAVwzv1K33mI-1" value="3.&amp;nbsp;Check for attestations that meet the conditions" style="text;html=1;strokeColor=none;fillColor=none;align=center;verticalAlign=middle;whiteSpace=wrap;rounded=0;" vertex="1" parent="1">
          <mxGeometry x="110" y="280" width="120" height="60" as="geometry" />
        </mxCell>
      </root>
    </mxGraphModel>
  </diagram>
</mxfile>
